<svg width="13321" height="2160" viewBox="0 0 13321 2160" fill="none" xmlns="http://www.w3.org/2000/svg">
<rect x="50" y="50" width="13221" height="2060" rx="450" fill="black"/>
<rect x="50" y="50" width="13221" height="2060" rx="450" stroke="black" stroke-width="100"/>
<path d="M3478.56 907.778C3474.77 874.161 3459.15 848.119 3431.69 829.653C3404.23 810.951 3369.66 801.599 3327.99 801.599C3298.16 801.599 3272.36 806.334 3250.58 815.804C3228.8 825.037 3211.87 837.821 3199.8 854.156C3187.96 870.255 3182.04 888.602 3182.04 909.199C3182.04 926.481 3186.07 941.396 3194.12 953.943C3202.4 966.491 3213.17 977.026 3226.43 985.548C3239.93 993.834 3254.37 1000.82 3269.76 1006.5C3285.14 1011.95 3299.94 1016.44 3314.14 1019.99L3385.17 1038.46C3408.37 1044.14 3432.16 1051.84 3456.55 1061.54C3480.93 1071.25 3503.54 1084.03 3524.37 1099.89C3545.21 1115.76 3562.01 1135.41 3574.8 1158.84C3587.82 1182.28 3594.33 1210.34 3594.33 1243.01C3594.33 1284.2 3583.68 1320.78 3562.37 1352.74C3541.3 1384.7 3510.64 1409.91 3470.39 1428.38C3430.39 1446.84 3381.97 1456.07 3325.15 1456.07C3270.7 1456.07 3223.59 1447.43 3183.82 1430.15C3144.05 1412.87 3112.91 1388.37 3090.42 1356.64C3067.93 1324.68 3055.5 1286.8 3053.14 1243.01H3163.22C3165.35 1269.28 3173.88 1291.18 3188.79 1308.7C3203.94 1325.98 3223.24 1338.89 3246.67 1347.41C3270.35 1355.7 3296.27 1359.84 3324.44 1359.84C3355.46 1359.84 3383.04 1354.98 3407.18 1345.28C3431.57 1335.34 3450.75 1321.6 3464.71 1304.09C3478.68 1286.33 3485.66 1265.61 3485.66 1241.94C3485.66 1220.4 3479.51 1202.76 3467.2 1189.03C3455.13 1175.3 3438.67 1163.93 3417.84 1154.94C3397.24 1145.94 3373.92 1138.01 3347.88 1131.14L3261.94 1107.71C3203.7 1091.85 3157.54 1068.53 3123.45 1037.75C3089.59 1006.97 3072.67 966.254 3072.67 915.591C3072.67 873.687 3084.03 837.111 3106.76 805.861C3129.49 774.611 3160.26 750.345 3199.09 733.062C3237.91 715.544 3281.71 706.784 3330.48 706.784C3379.72 706.784 3423.16 715.425 3460.81 732.707C3498.69 749.99 3528.52 773.782 3550.3 804.085C3572.08 834.151 3583.44 868.716 3584.39 907.778H3478.56ZM3766.11 716.727V1444H3659.93V716.727H3766.11ZM3919.07 1648.55C3903.21 1648.55 3888.77 1647.24 3875.75 1644.64C3862.73 1642.27 3853.02 1639.67 3846.63 1636.83L3872.2 1549.82C3891.61 1555.03 3908.89 1557.28 3924.04 1556.57C3939.2 1555.86 3952.57 1550.18 3964.17 1539.53C3976.01 1528.87 3986.43 1511.47 3995.42 1487.32L4008.56 1451.1L3808.99 898.545H3922.62L4060.76 1321.84H4066.44L4204.58 898.545H4318.58L4093.79 1516.8C4083.37 1545.21 4070.11 1569.24 4054.02 1588.89C4037.92 1608.77 4018.74 1623.69 3996.49 1633.63C3974.23 1643.57 3948.43 1648.55 3919.07 1648.55ZM4577.53 716.727H4710.7L4942.24 1282.07H4950.76L5182.29 716.727H5315.46V1444H5211.06V917.722H5204.31L4989.82 1442.93H4903.17L4688.68 917.366H4681.94V1444H4577.53V716.727ZM5644.56 1455.01C5590.82 1455.01 5544.53 1443.53 5505.71 1420.56C5467.12 1397.36 5437.29 1364.81 5416.22 1322.91C5395.39 1280.77 5384.97 1231.41 5384.97 1174.82C5384.97 1118.95 5395.39 1069.71 5416.22 1027.1C5437.29 984.483 5466.64 951.221 5504.29 927.31C5542.17 903.399 5586.44 891.443 5637.1 891.443C5667.88 891.443 5697.71 896.533 5726.59 906.713C5755.47 916.893 5781.39 932.873 5804.36 954.653C5827.32 976.434 5845.43 1004.72 5858.69 1039.53C5871.95 1074.09 5878.58 1116.11 5878.58 1165.59V1203.23H5444.98V1123.69H5774.53C5774.53 1095.75 5768.85 1071.01 5757.48 1049.47C5746.12 1027.69 5730.14 1010.52 5709.54 997.977C5689.18 985.43 5665.27 979.156 5637.81 979.156C5607.98 979.156 5581.94 986.495 5559.68 1001.17C5537.67 1015.61 5520.62 1034.55 5508.55 1057.99C5496.71 1081.19 5490.79 1106.41 5490.79 1133.63V1195.78C5490.79 1232.23 5497.18 1263.25 5509.97 1288.82C5522.99 1314.38 5541.1 1333.91 5564.3 1347.41C5587.5 1360.67 5614.61 1367.3 5645.62 1367.3C5665.75 1367.3 5684.09 1364.45 5700.66 1358.77C5717.24 1352.85 5731.56 1344.09 5743.63 1332.49C5755.71 1320.89 5764.94 1306.57 5771.33 1289.53L5871.83 1307.64C5863.78 1337.23 5849.34 1363.15 5828.51 1385.41C5807.91 1407.42 5781.99 1424.59 5750.74 1436.9C5719.72 1448.97 5684.33 1455.01 5644.56 1455.01ZM6143.58 1454.65C6099.54 1454.65 6060.24 1443.41 6025.68 1420.92C5991.35 1398.19 5964.36 1365.87 5944.71 1323.97C5925.3 1281.83 5915.59 1231.29 5915.59 1172.34C5915.59 1113.39 5925.42 1062.96 5945.07 1021.06C5964.95 979.156 5992.18 947.078 6026.74 924.824C6061.31 902.57 6100.49 891.443 6144.29 891.443C6178.14 891.443 6205.37 897.125 6225.96 908.489C6246.8 919.616 6262.89 932.636 6274.26 947.551C6285.86 962.466 6294.85 975.605 6301.25 986.969H6307.64V716.727H6413.82V1444H6310.12V1359.13H6301.25C6294.85 1370.73 6285.62 1383.99 6273.55 1398.9C6261.71 1413.82 6245.38 1426.84 6224.54 1437.96C6203.71 1449.09 6176.72 1454.65 6143.58 1454.65ZM6167.01 1364.1C6197.55 1364.1 6223.36 1356.05 6244.43 1339.95C6265.74 1323.62 6281.83 1301.01 6292.72 1272.12C6303.85 1243.24 6309.41 1209.62 6309.41 1171.27C6309.41 1133.39 6303.97 1100.25 6293.08 1071.84C6282.19 1043.43 6266.21 1021.3 6245.14 1005.43C6224.07 989.573 6198.03 981.642 6167.01 981.642C6135.05 981.642 6108.42 989.928 6087.11 1006.5C6065.81 1023.07 6049.71 1045.68 6038.82 1074.33C6028.16 1102.97 6022.84 1135.29 6022.84 1171.27C6022.84 1207.73 6028.28 1240.52 6039.17 1269.64C6050.06 1298.76 6066.16 1321.84 6087.47 1338.89C6109.01 1355.7 6135.53 1364.1 6167.01 1364.1ZM6508.36 1444V898.545H6614.54V1444H6508.36ZM6561.98 814.384C6543.52 814.384 6527.66 808.228 6514.4 795.918C6501.38 783.37 6494.87 768.455 6494.87 751.173C6494.87 733.654 6501.38 718.74 6514.4 706.429C6527.66 693.882 6543.52 687.608 6561.98 687.608C6580.45 687.608 6596.19 693.882 6609.21 706.429C6622.47 718.74 6629.1 733.654 6629.1 751.173C6629.1 768.455 6622.47 783.37 6609.21 795.918C6596.19 808.228 6580.45 814.384 6561.98 814.384ZM6859.12 1456.07C6824.56 1456.07 6793.31 1449.68 6765.37 1436.9C6737.44 1423.88 6715.3 1405.06 6698.97 1380.43C6682.87 1355.81 6674.82 1325.63 6674.82 1289.88C6674.82 1259.1 6680.74 1233.77 6692.57 1213.89C6704.41 1194 6720.39 1178.26 6740.51 1166.66C6760.64 1155.06 6783.13 1146.3 6807.99 1140.38C6832.84 1134.46 6858.17 1129.96 6883.98 1126.88C6916.65 1123.1 6943.17 1120.02 6963.52 1117.65C6983.88 1115.05 6998.68 1110.9 7007.91 1105.22C7017.15 1099.54 7021.76 1090.31 7021.76 1077.52V1075.04C7021.76 1044.02 7013 1019.99 6995.49 1002.95C6978.2 985.903 6952.4 977.381 6918.07 977.381C6882.32 977.381 6854.15 985.312 6833.55 1001.17C6813.19 1016.8 6799.11 1034.2 6791.29 1053.38L6691.51 1030.65C6703.34 997.504 6720.63 970.752 6743.35 950.392C6766.32 929.795 6792.72 914.881 6822.54 905.648C6852.37 896.178 6883.74 891.443 6916.65 891.443C6938.43 891.443 6961.51 894.047 6985.9 899.256C7010.52 904.227 7033.48 913.46 7054.79 926.955C7076.33 940.449 7093.97 959.743 7107.7 984.838C7121.43 1009.7 7128.3 1042.01 7128.3 1081.78V1444H7024.6V1369.43H7020.34C7013.48 1383.16 7003.18 1396.65 6989.45 1409.91C6975.72 1423.17 6958.08 1434.18 6936.54 1442.93C6914.99 1451.69 6889.19 1456.07 6859.12 1456.07ZM6882.2 1370.85C6911.56 1370.85 6936.65 1365.05 6957.49 1353.45C6978.56 1341.85 6994.54 1326.69 7005.43 1307.99C7016.56 1289.05 7022.12 1268.81 7022.12 1247.27V1176.95C7018.33 1180.74 7010.99 1184.29 7000.1 1187.61C6989.45 1190.69 6977.26 1193.41 6963.52 1195.78C6949.79 1197.91 6936.42 1199.92 6923.4 1201.81C6910.38 1203.47 6899.49 1204.89 6890.73 1206.07C6870.13 1208.68 6851.31 1213.06 6834.26 1219.21C6817.45 1225.37 6803.96 1234.25 6793.78 1245.85C6783.84 1257.21 6778.87 1272.36 6778.87 1291.3C6778.87 1317.58 6788.57 1337.47 6807.99 1350.96C6827.4 1364.22 6852.14 1370.85 6882.2 1370.85ZM7490.33 1444H7373.85L7635.57 716.727H7762.34L8024.06 1444H7907.59L7701.98 848.83H7696.29L7490.33 1444ZM7509.86 1159.2H7887.7V1251.53H7509.86V1159.2ZM8468.39 1031.71L8372.16 1048.76C8368.13 1036.45 8361.74 1024.73 8352.98 1013.6C8344.46 1002.48 8332.86 993.361 8318.18 986.259C8303.5 979.156 8285.16 975.605 8263.14 975.605C8233.07 975.605 8207.98 982.352 8187.86 995.847C8167.73 1009.1 8157.67 1026.27 8157.67 1047.34C8157.67 1065.57 8164.42 1080.25 8177.91 1091.37C8191.41 1102.5 8213.19 1111.61 8243.25 1118.72L8329.9 1138.6C8380.09 1150.2 8417.5 1168.08 8442.12 1192.22C8466.74 1216.37 8479.05 1247.74 8479.05 1286.33C8479.05 1319 8469.58 1348.12 8450.64 1373.69C8431.94 1399.02 8405.78 1418.91 8372.16 1433.35C8338.78 1447.79 8300.07 1455.01 8256.04 1455.01C8194.96 1455.01 8145.12 1441.99 8106.53 1415.95C8067.95 1389.67 8044.27 1352.38 8035.51 1304.09L8138.14 1288.46C8144.53 1315.21 8157.67 1335.45 8177.56 1349.18C8197.44 1362.68 8223.37 1369.43 8255.33 1369.43C8290.13 1369.43 8317.95 1362.21 8338.78 1347.76C8359.61 1333.09 8370.03 1315.21 8370.03 1294.14C8370.03 1277.1 8363.64 1262.77 8350.85 1251.17C8338.3 1239.57 8319.01 1230.81 8292.97 1224.89L8200.64 1204.65C8149.74 1193.05 8112.1 1174.59 8087.71 1149.26C8063.57 1123.92 8051.49 1091.85 8051.49 1053.02C8051.49 1020.82 8060.49 992.651 8078.48 968.503C8096.47 944.355 8121.33 925.534 8153.05 912.04C8184.78 898.309 8221.12 891.443 8262.07 891.443C8321.02 891.443 8367.42 904.227 8401.28 929.795C8435.13 955.127 8457.5 989.099 8468.39 1031.71ZM8947.53 1031.71L8851.29 1048.76C8847.27 1036.45 8840.88 1024.73 8832.12 1013.6C8823.59 1002.48 8811.99 993.361 8797.31 986.259C8782.64 979.156 8764.29 975.605 8742.27 975.605C8712.21 975.605 8687.11 982.352 8666.99 995.847C8646.86 1009.1 8636.8 1026.27 8636.8 1047.34C8636.8 1065.57 8643.55 1080.25 8657.04 1091.37C8670.54 1102.5 8692.32 1111.61 8722.39 1118.72L8809.03 1138.6C8859.22 1150.2 8896.63 1168.08 8921.25 1192.22C8945.87 1216.37 8958.18 1247.74 8958.18 1286.33C8958.18 1319 8948.71 1348.12 8929.77 1373.69C8911.07 1399.02 8884.91 1418.91 8851.29 1433.35C8817.91 1447.79 8779.2 1455.01 8735.17 1455.01C8674.09 1455.01 8624.26 1441.99 8585.67 1415.95C8547.08 1389.67 8523.4 1352.38 8514.64 1304.09L8617.27 1288.46C8623.66 1315.21 8636.8 1335.45 8656.69 1349.18C8676.58 1362.68 8702.5 1369.43 8734.46 1369.43C8769.26 1369.43 8797.08 1362.21 8817.91 1347.76C8838.74 1333.09 8849.16 1315.21 8849.16 1294.14C8849.16 1277.1 8842.77 1262.77 8829.99 1251.17C8817.44 1239.57 8798.14 1230.81 8772.1 1224.89L8679.77 1204.65C8628.87 1193.05 8591.23 1174.59 8566.85 1149.26C8542.7 1123.92 8530.62 1091.85 8530.62 1053.02C8530.62 1020.82 8539.62 992.651 8557.61 968.503C8575.61 944.355 8600.46 925.534 8632.19 912.04C8663.91 898.309 8700.25 891.443 8741.21 891.443C8800.16 891.443 8846.56 904.227 8880.41 929.795C8914.27 955.127 8936.64 989.099 8947.53 1031.71ZM9253.01 1455.01C9199.27 1455.01 9152.99 1443.53 9114.16 1420.56C9075.57 1397.36 9045.74 1364.81 9024.67 1322.91C9003.84 1280.77 8993.42 1231.41 8993.42 1174.82C8993.42 1118.95 9003.84 1069.71 9024.67 1027.1C9045.74 984.483 9075.1 951.221 9112.74 927.31C9150.62 903.399 9194.89 891.443 9245.55 891.443C9276.33 891.443 9306.16 896.533 9335.04 906.713C9363.92 916.893 9389.85 932.873 9412.81 954.653C9435.78 976.434 9453.89 1004.72 9467.14 1039.53C9480.4 1074.09 9487.03 1116.11 9487.03 1165.59V1203.23H9053.44V1123.69H9382.98C9382.98 1095.75 9377.3 1071.01 9365.94 1049.47C9354.57 1027.69 9338.59 1010.52 9318 997.977C9297.64 985.43 9273.72 979.156 9246.26 979.156C9216.43 979.156 9190.39 986.495 9168.14 1001.17C9146.12 1015.61 9129.08 1034.55 9117 1057.99C9105.16 1081.19 9099.25 1106.41 9099.25 1133.63V1195.78C9099.25 1232.23 9105.64 1263.25 9118.42 1288.82C9131.44 1314.38 9149.55 1333.91 9172.75 1347.41C9195.96 1360.67 9223.06 1367.3 9254.08 1367.3C9274.2 1367.3 9292.55 1364.45 9309.12 1358.77C9325.69 1352.85 9340.01 1344.09 9352.09 1332.49C9364.16 1320.89 9373.39 1306.57 9379.79 1289.53L9480.28 1307.64C9472.23 1337.23 9457.79 1363.15 9436.96 1385.41C9416.36 1407.42 9390.44 1424.59 9359.19 1436.9C9328.18 1448.97 9292.78 1455.01 9253.01 1455.01ZM9802.46 898.545V983.773H9504.51V898.545H9802.46ZM9584.42 767.864H9690.59V1283.84C9690.59 1304.44 9693.67 1319.95 9699.83 1330.36C9705.98 1340.54 9713.91 1347.53 9723.62 1351.32C9733.56 1354.87 9744.33 1356.64 9755.94 1356.64C9764.46 1356.64 9771.92 1356.05 9778.31 1354.87C9784.7 1353.68 9789.67 1352.74 9793.22 1352.03L9812.4 1439.74C9806.24 1442.11 9797.48 1444.47 9786.12 1446.84C9774.76 1449.45 9760.55 1450.87 9743.51 1451.1C9715.57 1451.58 9689.53 1446.6 9665.38 1436.19C9641.23 1425.77 9621.7 1409.67 9606.79 1387.89C9591.87 1366.11 9584.42 1338.77 9584.42 1305.86V767.864ZM10262.9 1031.71L10166.6 1048.76C10162.6 1036.45 10156.2 1024.73 10147.4 1013.6C10138.9 1002.48 10127.3 993.361 10112.6 986.259C10098 979.156 10079.6 975.605 10057.6 975.605C10027.5 975.605 10002.4 982.352 9982.32 995.847C9962.19 1009.1 9952.13 1026.27 9952.13 1047.34C9952.13 1065.57 9958.88 1080.25 9972.37 1091.37C9985.87 1102.5 10007.6 1111.61 10037.7 1118.72L10124.4 1138.6C10174.6 1150.2 10212 1168.08 10236.6 1192.22C10261.2 1216.37 10273.5 1247.74 10273.5 1286.33C10273.5 1319 10264 1348.12 10245.1 1373.69C10226.4 1399.02 10200.2 1418.91 10166.6 1433.35C10133.2 1447.79 10094.5 1455.01 10050.5 1455.01C9989.42 1455.01 9939.58 1441.99 9901 1415.95C9862.41 1389.67 9838.73 1352.38 9829.97 1304.09L9932.6 1288.46C9938.99 1315.21 9952.13 1335.45 9972.02 1349.18C9991.9 1362.68 10017.8 1369.43 10049.8 1369.43C10084.6 1369.43 10112.4 1362.21 10133.2 1347.76C10154.1 1333.09 10164.5 1315.21 10164.5 1294.14C10164.5 1277.1 10158.1 1262.77 10145.3 1251.17C10132.8 1239.57 10113.5 1230.81 10087.4 1224.89L9995.1 1204.65C9944.2 1193.05 9906.56 1174.59 9882.17 1149.26C9858.03 1123.92 9845.95 1091.85 9845.95 1053.02C9845.95 1020.82 9854.95 992.651 9872.94 968.503C9890.93 944.355 9915.79 925.534 9947.51 912.04C9979.24 898.309 10015.6 891.443 10056.5 891.443C10115.5 891.443 10161.9 904.227 10195.7 929.795C10229.6 955.127 10252 989.099 10262.9 1031.71Z" fill="white"/>
</svg>
