<svg width="13321" height="2160" viewBox="0 0 13321 2160" fill="none" xmlns="http://www.w3.org/2000/svg">
<rect x="75" y="75" width="13171" height="2010" rx="425" fill="white"/>
<rect x="75" y="75" width="13171" height="2010" rx="425" stroke="black" stroke-width="150"/>
<path d="M3501.6 1444H3255.15V716.727H3506.57C3578.78 716.727 3640.8 731.287 3692.65 760.406C3744.73 789.289 3784.74 830.837 3812.68 885.051C3840.61 939.265 3854.58 1004.13 3854.58 1079.65C3854.58 1155.41 3840.5 1220.52 3812.32 1274.97C3784.39 1329.42 3744.02 1371.2 3691.23 1400.32C3638.67 1429.44 3575.46 1444 3501.6 1444ZM3386.9 1330.01H3495.21C3545.87 1330.01 3588.13 1320.78 3621.98 1302.31C3655.84 1283.61 3681.29 1255.79 3698.33 1218.86C3715.38 1181.69 3723.9 1135.29 3723.9 1079.65C3723.9 1024.02 3715.38 977.854 3698.33 941.159C3681.29 904.227 3656.07 876.647 3622.69 858.418C3589.55 839.952 3548.36 830.719 3499.11 830.719H3386.9V1330.01ZM3917.08 1444V898.545H4045.63V1444H3917.08ZM3981.71 821.131C3961.35 821.131 3943.83 814.384 3929.15 800.889C3914.47 787.158 3907.14 770.705 3907.14 751.528C3907.14 732.116 3914.47 715.662 3929.15 702.168C3943.83 688.437 3961.35 681.571 3981.71 681.571C4002.31 681.571 4019.82 688.437 4034.27 702.168C4048.94 715.662 4056.28 732.116 4056.28 751.528C4056.28 770.705 4048.94 787.158 4034.27 800.889C4019.82 814.384 4002.31 821.131 3981.71 821.131ZM4358.04 1659.91C4311.87 1659.91 4272.22 1653.64 4239.07 1641.09C4205.93 1628.78 4179.3 1612.21 4159.17 1591.37C4139.05 1570.54 4125.08 1547.46 4117.27 1522.12L4233.04 1494.07C4238.24 1504.72 4245.82 1515.26 4255.76 1525.68C4265.71 1536.33 4279.08 1545.09 4295.89 1551.95C4312.94 1559.06 4334.36 1562.61 4360.17 1562.61C4396.63 1562.61 4426.81 1553.73 4450.72 1535.97C4474.63 1518.46 4486.59 1489.57 4486.59 1449.33V1345.99H4480.2C4473.57 1359.25 4463.86 1372.86 4451.08 1386.83C4438.53 1400.79 4421.84 1412.51 4401.01 1421.98C4380.41 1431.45 4354.49 1436.19 4323.24 1436.19C4281.33 1436.19 4243.33 1426.36 4209.24 1406.71C4175.39 1386.83 4148.4 1357.23 4128.28 1317.93C4108.39 1278.4 4098.45 1228.92 4098.45 1169.5C4098.45 1109.6 4108.39 1059.06 4128.28 1017.86C4148.4 976.434 4175.51 945.065 4209.6 923.759C4243.69 902.215 4281.69 891.443 4323.59 891.443C4355.55 891.443 4381.83 896.888 4402.43 907.778C4423.26 918.432 4439.83 931.334 4452.14 946.486C4464.45 961.401 4473.8 975.487 4480.2 988.744H4487.3V898.545H4614.07V1452.88C4614.07 1499.52 4602.95 1538.11 4580.69 1568.64C4558.44 1599.18 4528.02 1622.03 4489.43 1637.18C4450.84 1652.33 4407.04 1659.91 4358.04 1659.91ZM4359.1 1335.34C4386.33 1335.34 4409.53 1328.71 4428.7 1315.45C4447.88 1302.19 4462.44 1283.13 4472.38 1258.28C4482.33 1233.42 4487.3 1203.59 4487.3 1168.79C4487.3 1134.46 4482.33 1104.39 4472.38 1078.59C4462.68 1052.78 4448.24 1032.78 4429.06 1018.57C4410.12 1004.13 4386.8 996.912 4359.1 996.912C4330.46 996.912 4306.55 1004.37 4287.37 1019.28C4268.19 1034.2 4253.75 1054.68 4244.05 1080.72C4234.34 1106.52 4229.49 1135.88 4229.49 1168.79C4229.49 1202.17 4234.34 1231.41 4244.05 1256.5C4253.99 1281.36 4268.55 1300.77 4287.72 1314.74C4307.14 1328.47 4330.93 1335.34 4359.1 1335.34ZM4688.82 1444V898.545H4817.37V1444H4688.82ZM4753.45 821.131C4733.09 821.131 4715.57 814.384 4700.89 800.889C4686.22 787.158 4678.88 770.705 4678.88 751.528C4678.88 732.116 4686.22 715.662 4700.89 702.168C4715.57 688.437 4733.09 681.571 4753.45 681.571C4774.05 681.571 4791.57 688.437 4806.01 702.168C4820.69 715.662 4828.03 732.116 4828.03 751.528C4828.03 770.705 4820.69 787.158 4806.01 800.889C4791.57 814.384 4774.05 821.131 4753.45 821.131ZM5164.94 898.545V997.977H4851.37V898.545H5164.94ZM4928.78 767.864H5057.34V1279.94C5057.34 1297.22 5059.94 1310.48 5065.15 1319.71C5070.59 1328.71 5077.7 1334.86 5086.45 1338.18C5095.21 1341.49 5104.92 1343.15 5115.57 1343.15C5123.62 1343.15 5130.96 1342.56 5137.59 1341.37C5144.46 1340.19 5149.67 1339.12 5153.22 1338.18L5174.88 1438.67C5168.01 1441.04 5158.19 1443.64 5145.4 1446.49C5132.86 1449.33 5117.47 1450.98 5099.24 1451.46C5067.04 1452.4 5038.04 1447.55 5012.24 1436.9C4986.43 1426.01 4965.95 1409.2 4950.8 1386.47C4935.89 1363.74 4928.55 1335.34 4928.78 1301.24V767.864ZM5372.41 1455.01C5337.84 1455.01 5306.71 1448.85 5279.01 1436.54C5251.55 1424 5229.77 1405.53 5213.67 1381.14C5197.81 1356.76 5189.88 1326.69 5189.88 1290.95C5189.88 1260.17 5195.56 1234.72 5206.92 1214.6C5218.29 1194.47 5233.79 1178.38 5253.44 1166.3C5273.09 1154.23 5295.23 1145.11 5319.85 1138.96C5344.71 1132.57 5370.39 1127.95 5396.91 1125.11C5428.87 1121.79 5454.79 1118.83 5474.68 1116.23C5494.56 1113.39 5509.01 1109.13 5518 1103.45C5527.24 1097.53 5531.85 1088.41 5531.85 1076.1V1073.97C5531.85 1047.22 5523.92 1026.5 5508.06 1011.83C5492.2 997.149 5469.35 989.81 5439.52 989.81C5408.04 989.81 5383.06 996.675 5364.59 1010.41C5346.36 1024.14 5334.05 1040.35 5327.66 1059.06L5207.63 1042.01C5217.1 1008.87 5232.73 981.169 5254.51 958.915C5276.29 936.424 5302.92 919.616 5334.41 908.489C5365.9 897.125 5400.7 891.443 5438.81 891.443C5465.09 891.443 5491.25 894.521 5517.29 900.676C5543.33 906.831 5567.13 917.011 5588.67 931.216C5610.21 945.184 5627.5 964.241 5640.52 988.389C5653.77 1012.54 5660.4 1042.72 5660.4 1078.94V1444H5536.82V1369.07H5532.56C5524.75 1384.22 5513.74 1398.43 5499.54 1411.68C5485.57 1424.71 5467.93 1435.24 5446.62 1443.29C5425.55 1451.1 5400.81 1455.01 5372.41 1455.01ZM5405.79 1360.55C5431.59 1360.55 5453.96 1355.46 5472.9 1345.28C5491.84 1334.86 5506.4 1321.13 5516.58 1304.09C5527 1287.04 5532.21 1268.46 5532.21 1248.33V1184.06C5528.18 1187.37 5521.32 1190.45 5511.61 1193.29C5502.14 1196.13 5491.49 1198.62 5479.65 1200.75C5467.81 1202.88 5456.09 1204.77 5444.49 1206.43C5432.89 1208.09 5422.83 1209.51 5414.31 1210.69C5395.13 1213.29 5377.97 1217.56 5362.82 1223.47C5347.67 1229.39 5335.71 1237.68 5326.95 1248.33C5318.19 1258.75 5313.81 1272.24 5313.81 1288.82C5313.81 1312.49 5322.45 1330.36 5339.74 1342.44C5357.02 1354.51 5379.03 1360.55 5405.79 1360.55ZM5861.22 716.727V1444H5732.66V716.727H5861.22ZM6528.38 916.656C6525.06 885.643 6511.09 861.495 6486.47 844.213C6462.09 826.931 6430.37 818.29 6391.3 818.29C6363.84 818.29 6340.28 822.433 6320.64 830.719C6300.99 839.005 6285.95 850.25 6275.54 864.455C6265.12 878.659 6259.79 894.876 6259.56 913.105C6259.56 928.257 6262.99 941.396 6269.85 952.523C6276.96 963.65 6286.54 973.119 6298.62 980.932C6310.69 988.508 6324.07 994.9 6338.75 1000.11C6353.42 1005.32 6368.22 1009.7 6383.14 1013.25L6451.32 1030.29C6478.78 1036.68 6505.18 1045.33 6530.51 1056.22C6556.08 1067.11 6578.92 1080.84 6599.04 1097.41C6619.4 1113.98 6635.5 1133.99 6647.34 1157.42C6659.18 1180.86 6665.1 1208.32 6665.1 1239.81C6665.1 1282.42 6654.21 1319.95 6632.43 1352.38C6610.64 1384.58 6579.16 1409.79 6537.96 1428.02C6497.01 1446.01 6447.41 1455.01 6389.17 1455.01C6332.59 1455.01 6283.47 1446.25 6241.8 1428.73C6200.37 1411.21 6167.94 1385.64 6144.5 1352.03C6121.3 1318.41 6108.75 1277.45 6106.86 1229.16H6236.47C6238.37 1254.49 6246.18 1275.56 6259.91 1292.37C6273.64 1309.18 6291.52 1321.72 6313.53 1330.01C6335.79 1338.29 6360.64 1342.44 6388.11 1342.44C6416.75 1342.44 6441.85 1338.18 6463.39 1329.65C6485.17 1320.89 6502.22 1308.82 6514.53 1293.43C6526.84 1277.81 6533.11 1259.58 6533.35 1238.74C6533.11 1219.8 6527.55 1204.18 6516.66 1191.87C6505.77 1179.32 6490.5 1168.91 6470.85 1160.62C6451.44 1152.1 6428.71 1144.52 6402.67 1137.89L6319.93 1116.59C6260.03 1101.2 6212.68 1077.88 6177.88 1046.63C6143.32 1015.14 6126.03 973.356 6126.03 921.273C6126.03 878.422 6137.63 840.899 6160.83 808.702C6184.27 776.505 6216.11 751.528 6256.36 733.773C6296.61 715.78 6342.18 706.784 6393.08 706.784C6444.69 706.784 6489.91 715.78 6528.73 733.773C6567.79 751.528 6598.45 776.268 6620.71 807.991C6642.96 839.478 6654.44 875.7 6655.15 916.656H6528.38ZM6957.79 1454.65C6904.53 1454.65 6858.36 1442.93 6819.3 1419.5C6780.24 1396.06 6749.93 1363.27 6728.39 1321.13C6707.08 1278.99 6696.43 1229.75 6696.43 1173.4C6696.43 1117.06 6707.08 1067.7 6728.39 1025.32C6749.93 982.944 6780.24 950.037 6819.3 926.599C6858.36 903.162 6904.53 891.443 6957.79 891.443C7011.06 891.443 7057.23 903.162 7096.29 926.599C7135.35 950.037 7165.54 982.944 7186.84 1025.32C7208.39 1067.7 7219.16 1117.06 7219.16 1173.4C7219.16 1229.75 7208.39 1278.99 7186.84 1321.13C7165.54 1363.27 7135.35 1396.06 7096.29 1419.5C7057.23 1442.93 7011.06 1454.65 6957.79 1454.65ZM6958.5 1351.67C6987.39 1351.67 7011.53 1343.74 7030.95 1327.88C7050.36 1311.78 7064.8 1290.24 7074.27 1263.25C7083.98 1236.26 7088.83 1206.19 7088.83 1173.05C7088.83 1139.67 7083.98 1109.48 7074.27 1082.49C7064.8 1055.27 7050.36 1033.61 7030.95 1017.51C7011.53 1001.41 6987.39 993.361 6958.5 993.361C6928.91 993.361 6904.29 1001.41 6884.64 1017.51C6865.23 1033.61 6850.67 1055.27 6840.96 1082.49C6831.49 1109.48 6826.76 1139.67 6826.76 1173.05C6826.76 1206.19 6831.49 1236.26 6840.96 1263.25C6850.67 1290.24 6865.23 1311.78 6884.64 1327.88C6904.29 1343.74 6928.91 1351.67 6958.5 1351.67ZM7399.82 716.727V1444H7271.27V716.727H7399.82ZM7822.66 1214.6V898.545H7951.22V1444H7826.57V1347.05H7820.89C7808.58 1377.59 7788.34 1402.57 7760.16 1421.98C7732.23 1441.4 7697.78 1451.1 7656.83 1451.1C7621.08 1451.1 7589.47 1443.17 7562.01 1427.31C7534.79 1411.21 7513.48 1387.89 7498.09 1357.35C7482.7 1326.58 7475.01 1289.41 7475.01 1245.85V898.545H7603.56V1225.96C7603.56 1260.52 7613.03 1287.99 7631.97 1308.35C7650.91 1328.71 7675.77 1338.89 7706.54 1338.89C7725.48 1338.89 7743.83 1334.27 7761.58 1325.04C7779.34 1315.8 7793.9 1302.07 7805.26 1283.84C7816.86 1265.38 7822.66 1242.3 7822.66 1214.6ZM8298.78 898.545V997.977H7985.21V898.545H8298.78ZM8062.63 767.864H8191.18V1279.94C8191.18 1297.22 8193.78 1310.48 8198.99 1319.71C8204.44 1328.71 8211.54 1334.86 8220.3 1338.18C8229.06 1341.49 8238.76 1343.15 8249.42 1343.15C8257.47 1343.15 8264.81 1342.56 8271.44 1341.37C8278.3 1340.19 8283.51 1339.12 8287.06 1338.18L8308.72 1438.67C8301.86 1441.04 8292.03 1443.64 8279.25 1446.49C8266.7 1449.33 8251.31 1450.98 8233.08 1451.46C8200.89 1452.4 8171.88 1447.55 8146.08 1436.9C8120.27 1426.01 8099.8 1409.2 8084.65 1386.47C8069.73 1363.74 8062.39 1335.34 8062.63 1301.24V767.864ZM8349.29 1444V898.545H8477.84V1444H8349.29ZM8413.92 821.131C8393.56 821.131 8376.04 814.384 8361.36 800.889C8346.69 787.158 8339.35 770.705 8339.35 751.528C8339.35 732.116 8346.69 715.662 8361.36 702.168C8376.04 688.437 8393.56 681.571 8413.92 681.571C8434.52 681.571 8452.04 688.437 8466.48 702.168C8481.15 715.662 8488.49 732.116 8488.49 751.528C8488.49 770.705 8481.15 787.158 8466.48 800.889C8452.04 814.384 8434.52 821.131 8413.92 821.131ZM8790.96 1454.65C8737.69 1454.65 8691.53 1442.93 8652.46 1419.5C8613.4 1396.06 8583.1 1363.27 8561.55 1321.13C8540.25 1278.99 8529.59 1229.75 8529.59 1173.4C8529.59 1117.06 8540.25 1067.7 8561.55 1025.32C8583.1 982.944 8613.4 950.037 8652.46 926.599C8691.53 903.162 8737.69 891.443 8790.96 891.443C8844.22 891.443 8890.39 903.162 8929.45 926.599C8968.51 950.037 8998.7 982.944 9020.01 1025.32C9041.55 1067.7 9052.32 1117.06 9052.32 1173.4C9052.32 1229.75 9041.55 1278.99 9020.01 1321.13C8998.7 1363.27 8968.51 1396.06 8929.45 1419.5C8890.39 1442.93 8844.22 1454.65 8790.96 1454.65ZM8791.67 1351.67C8820.55 1351.67 8844.7 1343.74 8864.11 1327.88C8883.52 1311.78 8897.97 1290.24 8907.44 1263.25C8917.14 1236.26 8921.99 1206.19 8921.99 1173.05C8921.99 1139.67 8917.14 1109.48 8907.44 1082.49C8897.97 1055.27 8883.52 1033.61 8864.11 1017.51C8844.7 1001.41 8820.55 993.361 8791.67 993.361C8762.08 993.361 8737.45 1001.41 8717.8 1017.51C8698.39 1033.61 8683.83 1055.27 8674.13 1082.49C8664.66 1109.48 8659.92 1139.67 8659.92 1173.05C8659.92 1206.19 8664.66 1236.26 8674.13 1263.25C8683.83 1290.24 8698.39 1311.78 8717.8 1327.88C8737.45 1343.74 8762.08 1351.67 8791.67 1351.67ZM9232.98 1124.4V1444H9104.43V898.545H9227.3V991.23H9233.69C9246.24 960.69 9266.24 936.424 9293.71 918.432C9321.4 900.439 9355.61 891.443 9396.33 891.443C9433.98 891.443 9466.76 899.492 9494.7 915.591C9522.87 931.689 9544.65 955.009 9560.04 985.548C9575.67 1016.09 9583.36 1053.14 9583.12 1096.7V1444H9454.57V1116.59C9454.57 1080.13 9445.1 1051.6 9426.16 1031C9407.46 1010.41 9381.54 1000.11 9348.39 1000.11C9325.9 1000.11 9305.9 1005.08 9288.38 1015.02C9271.1 1024.73 9257.48 1038.82 9247.54 1057.28C9237.83 1075.75 9232.98 1098.12 9232.98 1124.4ZM10087.9 1042.72L9970.73 1055.51C9967.41 1043.67 9961.61 1032.54 9953.32 1022.12C9945.28 1011.71 9934.39 1003.3 9920.65 996.912C9906.92 990.52 9890.11 987.324 9870.23 987.324C9843.48 987.324 9820.99 993.124 9802.76 1004.72C9784.76 1016.32 9775.89 1031.36 9776.12 1049.82C9775.89 1065.69 9781.69 1078.59 9793.52 1088.53C9805.6 1098.47 9825.48 1106.64 9853.18 1113.03L9946.22 1132.92C9997.83 1144.05 10036.2 1161.68 10061.3 1185.83C10086.6 1209.98 10099.4 1241.59 10099.6 1280.65C10099.4 1314.98 10089.3 1345.28 10069.4 1371.56C10049.8 1397.6 10022.5 1417.96 9987.42 1432.64C9952.38 1447.31 9912.13 1454.65 9866.68 1454.65C9799.92 1454.65 9746.18 1440.69 9705.46 1412.75C9664.74 1384.58 9640.47 1345.4 9632.66 1295.21L9758.01 1283.13C9763.69 1307.75 9775.77 1326.34 9794.23 1338.89C9812.7 1351.43 9836.73 1357.71 9866.32 1357.71C9896.86 1357.71 9921.36 1351.43 9939.83 1338.89C9958.53 1326.34 9967.88 1310.83 9967.88 1292.37C9967.88 1276.74 9961.85 1263.84 9949.77 1253.66C9937.94 1243.48 9919.47 1235.67 9894.38 1230.22L9801.34 1210.69C9749.02 1199.8 9710.31 1181.45 9685.21 1155.65C9660.12 1129.61 9647.69 1096.7 9647.93 1056.93C9647.69 1023.31 9656.81 994.189 9675.27 969.568C9693.97 944.71 9719.9 925.534 9753.04 912.04C9786.42 898.309 9824.89 891.443 9868.45 891.443C9932.37 891.443 9982.68 905.056 10019.4 932.281C10056.3 959.507 10079.2 996.32 10087.9 1042.72Z" fill="black"/>
</svg>
