<svg width="2000" height="800" viewBox="0 0 2000 800" fill="none" xmlns="http://www.w3.org/2000/svg">
<path d="M1938.25 571.92C1595.44 450.976 1292.8 160.975 1084.38 138.321C1073.75 137.166 1064.67 145.862 1064.12 156.54C1034.53 726.358 1598.38 705.278 1938.03 610.531C1956.99 605.242 1956.81 578.468 1938.25 571.92Z" fill="#f8f5f2" stroke="#f8f5f2" stroke-width="24"/>
<circle cx="1230" cy="315" r="75" fill="#375144"/>
<path d="M61.7479 571.92C404.562 450.976 707.196 160.975 915.618 138.321C926.248 137.166 935.326 145.862 935.88 156.54C965.47 726.358 401.622 705.278 61.9679 610.531C43.0101 605.242 43.1876 578.468 61.7479 571.92Z" fill="#f8f5f2" stroke="#f8f5f2" stroke-width="24"/>
<circle cx="75" cy="75" r="75" transform="matrix(-1 0 0 1 845 240)" fill="#375144"/>
</svg>
