<svg width="1166" height="100" viewBox="0 0 1166 100" preserveAspectRatio="none" fill="none" xmlns="http://www.w3.org/2000/svg">
<path d="M1164.89 48.9498C1054.4 62.3091 942.921 53.8817 831.863 54.0454C728.418 54.2003 624.908 51.9593 521.482 52.6819C387.373 53.6711 253.367 56.6192 119.296 58.7439C91.3897 59.1967 63.4333 60.211 35.5193 59.9712C27.3518 59.9304 16.924 58.6176 11.6123 53.99C5.13194 48.3771 0.337169 38.7642 0.00316741 30.8094C-0.162775 27.2095 11.9738 20.3735 18.8417 20.1091C77.219 17.8612 135.643 15.8692 194.055 15.5741C318.006 14.9317 441.924 14.6636 565.869 15.6558C655.827 16.3667 745.911 18.7871 835.865 21.8875C868.935 23.0302 901.866 29.6321 934.961 31.2801C985.652 33.7517 1036.37 33.5842 1087.03 35.6129C1113.13 36.6332 1139.15 40.0369 1165.2 42.3736C1165.08 44.5636 1164.95 46.7536 1164.89 48.9498Z" fill="#47FF47"/>
</svg>
