<svg width="1642" height="49" viewBox="0 0 1642 49" 
     preserveAspectRatio="none" 
     fill="none" xmlns="http://www.w3.org/2000/svg">
<path d="M1520.76 29.3132C1462.65 29.3132 1404.54 29.6498 1346.42 29.2214C1299.82 28.8848 1253.22 27.0796 1206.55 26.8654C1166.22 26.6818 1125.62 26.743 1085.56 28.64C1001.42 32.5871 917.692 38.4312 833.486 42.1335C792.95 43.9081 753.299 40.9402 713.785 33.9028C649.335 22.4288 582.502 27.9669 516.894 33.9639C478.606 37.4521 440.659 41.6439 402.371 44.9179C368.375 47.8246 338.126 45.1015 310.534 34.117C282.738 23.0407 246.903 25.7944 214.746 29.1908C168.01 34.0863 122.296 40.9708 76.31 47.2738C47.4918 51.2209 21.4669 48.6202 3.88981 37.1767C-1.90108 33.4132 -0.470361 26.0698 3.27668 21.266C4.84363 19.2466 23.5106 17.5025 30.1872 19.1242C51.5113 24.2952 70.1783 20.7765 90.0036 18.1451C148.321 10.404 206.775 2.1121 268.568 4.4681C288.597 5.23304 311.352 7.31368 326.885 12.4234C358.428 22.8266 390.857 20.8682 424.581 18.2675C482.694 13.7696 540.535 8.47638 598.853 4.6823C642.25 1.86734 684.898 4.28451 726.593 11.5361C778.847 20.5929 833.69 18.2675 887.58 15.4832C977.645 10.8324 1067.23 3.70314 1157.5 0.429221C1207.37 -1.37603 1258.2 3.06056 1308.68 3.64191C1376.13 4.40685 1443.64 3.97848 1511.16 4.40685C1545.97 4.62103 1580.99 4.95763 1615.53 6.73228C1625.2 7.22184 1639.3 12.4234 1641.35 16.4929C1645.5 24.693 1628.95 25.2743 1615.19 25.6109C1583.78 26.437 1552.37 27.3243 1520.97 28.2116C1520.97 28.5788 1520.9 28.946 1520.83 29.2825L1520.76 29.3132Z" fill="#47ff47"/>
</svg>
